<svg width="171" height="152" viewBox="0 0 171 152" fill="none" xmlns="http://www.w3.org/2000/svg">
<g clip-path="url(#clip0_0_1)">
<path d="M34.28 39.12L47.28 38.02C48.9011 37.878 50.5218 38.2973 51.8707 39.2075C53.2196 40.1177 54.2149 41.4636 54.69 43.02L67.15 84.72L64.71 89.09C64.0833 90.216 63.7739 91.4909 63.8149 92.7789C63.8558 94.0669 64.2455 95.3196 64.9424 96.4035C65.6394 97.4874 66.6174 98.3619 67.7723 98.9336C68.9271 99.5053 70.2155 99.7529 71.5 99.65L121.4 95.41" stroke="#BABABA" stroke-linecap="round" stroke-linejoin="round"/>
<path d="M56.55 49.35L114.55 44.43C115.121 44.381 115.696 44.4613 116.233 44.665C116.769 44.8686 117.252 45.1903 117.647 45.6062C118.042 46.0221 118.338 46.5216 118.513 47.0675C118.688 47.6135 118.739 48.192 118.66 48.76L114.73 77.13C114.611 77.9812 114.209 78.7675 113.588 79.3624C112.968 79.9573 112.165 80.3263 111.31 80.41L67.1501 84.72L56.55 49.35Z" fill="white" stroke="#BABABA" stroke-linecap="round" stroke-linejoin="round"/>
<path d="M77.0501 109.21C79.6514 109.21 81.7601 107.101 81.7601 104.5C81.7601 101.899 79.6514 99.79 77.0501 99.79C74.4488 99.79 72.3401 101.899 72.3401 104.5C72.3401 107.101 74.4488 109.21 77.0501 109.21Z" fill="white" stroke="#BABABA" stroke-linecap="round" stroke-linejoin="round"/>
<path d="M109.85 106.43C112.451 106.43 114.56 104.321 114.56 101.72C114.56 99.1187 112.451 97.01 109.85 97.01C107.249 97.01 105.14 99.1187 105.14 101.72C105.14 104.321 107.249 106.43 109.85 106.43Z" fill="white" stroke="#BABABA" stroke-linecap="round" stroke-linejoin="round"/>
<path d="M44.5746 36.894L32.3186 37.9339C31.2565 38.0241 30.4686 38.9581 30.5587 40.0202C30.6488 41.0823 31.5829 41.8702 32.6449 41.7801L44.9009 40.7402C45.963 40.6501 46.7509 39.716 46.6608 38.6539C46.5707 37.5918 45.6366 36.8039 44.5746 36.894Z" fill="#D2D2D2"/>
<path d="M80.97 71.26C81.2091 69.4349 82.065 67.7465 83.3957 66.4747C84.7263 65.2029 86.4517 64.4242 88.2857 64.2678C90.1197 64.1113 91.9521 64.5866 93.4789 65.6146C95.0057 66.6427 96.1352 68.1618 96.68 69.92" stroke="#BABABA" stroke-linecap="round" stroke-linejoin="round"/>
<path d="M96.8099 60.47C97.4285 60.47 97.9299 59.9686 97.9299 59.35C97.9299 58.7315 97.4285 58.23 96.8099 58.23C96.1914 58.23 95.6899 58.7315 95.6899 59.35C95.6899 59.9686 96.1914 60.47 96.8099 60.47Z" fill="#BABABA"/>
<path d="M79.0599 61.97C79.6785 61.97 80.1799 61.4686 80.1799 60.85C80.1799 60.2315 79.6785 59.73 79.0599 59.73C78.4414 59.73 77.9399 60.2315 77.9399 60.85C77.9399 61.4686 78.4414 61.97 79.0599 61.97Z" fill="#BABABA"/>
<path d="M47.51 103.11V107.42" stroke="#BABABA" stroke-linecap="round" stroke-linejoin="round"/>
<path d="M45.3601 105.26H49.6601" stroke="#BABABA" stroke-linecap="round" stroke-linejoin="round"/>
<path d="M116.22 22.99V27.29" stroke="#BABABA" stroke-linecap="round" stroke-linejoin="round"/>
<path d="M114.07 25.14H118.37" stroke="#BABABA" stroke-linecap="round" stroke-linejoin="round"/>
<path d="M65.3101 35.84V40.14" stroke="#BABABA" stroke-linecap="round" stroke-linejoin="round"/>
<path d="M63.1499 37.99H67.4599" stroke="#BABABA" stroke-linecap="round" stroke-linejoin="round"/>
<path d="M126.95 51.65C127.513 51.65 127.97 51.1933 127.97 50.63C127.97 50.0667 127.513 49.61 126.95 49.61C126.387 49.61 125.93 50.0667 125.93 50.63C125.93 51.1933 126.387 51.65 126.95 51.65Z" fill="white" stroke="#BABABA" stroke-linecap="round" stroke-linejoin="round"/>
<path d="M88.8301 42.48C89.3713 42.48 89.8101 42.0412 89.8101 41.5C89.8101 40.9587 89.3713 40.52 88.8301 40.52C88.2889 40.52 87.8501 40.9587 87.8501 41.5C87.8501 42.0412 88.2889 42.48 88.8301 42.48Z" fill="#CFCFCF"/>
<path d="M95.4099 113.6C95.9512 113.6 96.3899 113.161 96.3899 112.62C96.3899 112.079 95.9512 111.64 95.4099 111.64C94.8687 111.64 94.4299 112.079 94.4299 112.62C94.4299 113.161 94.8687 113.6 95.4099 113.6Z" fill="#CFCFCF"/>
</g>

</svg>
